<svg xmlns="http://www.w3.org/2000/svg" viewBox="0 0 192 192" width="192" height="192"><rect width="192" height="192" fill="#120C08"/>
<path d="M133 104.815C133 117.242 122.926 127.315 110.5 127.315C98.0737 127.315 88.0002 117.242 88 104.815V73H100V104.815C100 110.614 104.701 115.315 110.5 115.315C116.299 115.315 121 110.614 121 104.815V73H133V104.815Z" fill="#C79980"/>
<path d="M99.9961 106.27C100.609 122.205 83.8488 132.811 69.7646 125.628C73.3398 123.272 76.1327 119.828 77.6729 115.766C82.9586 116.709 88.2291 112.563 88.0049 106.73L99.9961 106.27Z" fill="#C79980"/>
<path d="M153 112.5C148.204 126.4 127.676 123.101 127.476 108.399L127 73.5" stroke="#C79980" stroke-width="12"/>
<path d="M168 119.126L165.126 119.126C158.429 119.126 153 113.697 153 107" stroke="#C79980" stroke-width="12"/>
<path d="M159 119H147V73H147.071C148.928 73.6474 150.923 74 153 74C155.077 74 157.072 73.6474 158.929 73H159V119Z" fill="#C79980"/>
<path d="M164 57C164 63.0751 159.075 68 153 68C146.925 68 142 63.0751 142 57C142 50.9249 146.925 46 153 46C159.075 46 164 50.9249 164 57Z" fill="#EDEAE9"/>
<path d="M47 79C58.598 79 68 88.402 68 100C68 111.598 58.598 121 47 121C35.402 121 26 111.598 26 100C26 88.402 35.402 79 47 79Z" stroke="#EDEAE9" stroke-width="12"/></svg>